<svg version="1.1" width="60" height="60" viewBox="0 0 60 60" xmlns="http://www.w3.org/2000/svg">
  <g transform="matrix(1 0 0 1 30 30)" id="VBc_jjsfD-IefQApWCv2B">
    <path style="stroke: none; stroke-width: 1; stroke-dasharray: none; stroke-linecap: butt; stroke-dashoffset: 0; stroke-linejoin: miter; stroke-miterlimit: 4; fill: rgb(83,109,254); fill-rule: nonzero; opacity: 1;" vector-effect="non-scaling-stroke" transform=" translate(-20, -20)" d="M 4.1514 23.70579 C 2.1542999999999997 25.70289 0 36.294380000000004 0 37.14288 C 0 38.631479999999996 1.16 39.99998 2.8571 39.99998 C 3.7057 39.99998 14.2971 37.84568 16.2942 35.84858 L 32.6428 19.499989999999997 L 20.499900000000004 7.357099999999997 z M 31.42849 0 C 29.70849 0 27.28849 0.5686 25.31139 2.5457 L 24.49999 3.3571 L 36.64289 15.49999 L 37.45429 14.68859 C 39.07779 13.06599 39.99299 10.86679 39.99999 8.57149 C 39.99999 3.837690000000001 36.162389999999995 -0.000009999999999621423 31.428589999999996 -0.000009999999999621423 z" stroke-linecap="round"></path>
  </g>
</svg>